#N canvas 89 158 1443 806 10;
#X obj 206 226 *~;
#X obj 260 178 nbx 5 14 0 100 0 0 empty empty Gain\ % 0 -8 0 12 -204786
-1 -1 4 256 0;
#X obj 260 197 / 100;
#X msg 260 219 \$1 50;
#X obj 260 241 line~;
#X obj 407 211 f;
#X obj 407 233 + 1;
#X obj 407 153 tgl 31 0 empty empty Channel\ Sweep -2 -9 0 15 -262130
-1 -1 0 1;
#X msg 336 188 0;
#X obj 336 153 bng 24 250 50 0 empty empty Reset\ Count -29 -7 0 14
-261234 -1 -1;
#X obj 109 20 pddp/dsp;
#X obj 109 107 samplerate~;
#X obj 407 276 - 1;
#X obj 336 85 key;
#X obj 336 107 sel 82;
#X text 380 105 Shift+r to reset channel count to 0;
#X obj 109 128 nbx 5 14 -1e+37 1e+37 0 0 empty empty empty 0 -8 0 10
-204786 -1 -1 48000 256 0;
#X obj 260 122 loadbang;
#X obj 407 255 nbx 5 14 -1e+37 1e+37 0 0 empty empty Channel\ Number
80 8 0 14 -204786 -1 -1 6 256 0;
#X obj 407 189 metro 300;
#X obj 206 466 dac~ 1 2 3 4 5 6 7 8 9 10 11 12 13 14 15 16 17 18 19
20 21 22 23 24 25 26 27 28 29 30 31 32 33 34 35 36 37 38 39 40 41 42
43 44 45 46 47 48 49 50 51 52 53 54 55 56 57 58 59 60 61 62 63 64 65
66 67 68 69 70 71 72 73 74 75 76 77 78 79 80 81 82 83 84 85 86 87 88
89 90 91 92 93 94 95 96 97 98 99 100 101 102 103 104 105 106 107 108
109 110 111 112 113 114 115 116 117 118 119 120 121 122 123 124 125
126 127 128 129 130 131 132 133 134 135 136 137 138 139 140 141 142
143 144 145 146 147 148 149 150 151 152 153 154 155 156 157 158 159
160;
#X obj 206 369 demultiplex~ . . . . . . . . . . . . . . . . . . . .
. . . . . . . . . . . . . . . . . . . . . . . . . . . . . . . . . .
. . . . . . . . . . . . . . . . . . . . . . . . . . . . . . . . . .
. . . . . . . . . . . . . . . . . . . . . . . . . . . . . . . . . .
. . . . . . . . . . . . . . . . . . . . . . . . . . . . . . . . . .
. . . .;
#X text 206 588 This goes to 160 channels;
#X obj 109 65 route dsp;
#X obj 109 44 receive pd;
#X obj 109 86 sel 1;
#X obj 407 303 moses 0;
#X text 454 303 Separates any channel below 1;
#X text 176 44 Refreshes sample rate with dsp on;
#X msg 260 144 0;
#X obj 110 164 loadbang;
#X msg 110 186 \; pd dsp 0;
#X obj 206 204 pink~;
#X obj 578 168 nbx 5 14 -1e+37 1e+37 0 0 empty empty Channel\ to\ Reset
80 8 0 12 -260764 -1 -1 0 256 0;
#X obj 563 195 f;
#X obj 518 165 bng 30 250 50 0 empty empty Reset 3 -7 0 10 -256604
-1 -1;
#X obj 617 84 key;
#X obj 617 110 sel 36;
#X text 617 58 Shift+4 to reset to certain number;
#X msg 457 161 150;
#X msg 478 183 50;
#X text 918 140 Made by Brandon Hale;
#X obj 909 123 cnv 15 140 53 empty empty empty 20 12 0 14 -262144 -66577
0;
#X text 824 302 Lfes are 139-140;
#X msg 457 216 350;
#X connect 0 0 21 0;
#X connect 1 0 2 0;
#X connect 2 0 3 0;
#X connect 3 0 4 0;
#X connect 4 0 0 1;
#X connect 5 0 6 0;
#X connect 6 0 5 1;
#X connect 6 0 18 0;
#X connect 7 0 19 0;
#X connect 8 0 5 1;
#X connect 8 0 18 0;
#X connect 9 0 8 0;
#X connect 11 0 16 0;
#X connect 12 0 26 0;
#X connect 13 0 14 0;
#X connect 14 0 9 0;
#X connect 17 0 29 0;
#X connect 18 0 12 0;
#X connect 19 0 5 0;
#X connect 21 0 20 0;
#X connect 21 1 20 1;
#X connect 21 2 20 2;
#X connect 21 3 20 3;
#X connect 21 4 20 4;
#X connect 21 5 20 5;
#X connect 21 6 20 6;
#X connect 21 7 20 7;
#X connect 21 8 20 8;
#X connect 21 9 20 9;
#X connect 21 10 20 10;
#X connect 21 11 20 11;
#X connect 21 12 20 12;
#X connect 21 13 20 13;
#X connect 21 14 20 14;
#X connect 21 15 20 15;
#X connect 21 16 20 16;
#X connect 21 17 20 17;
#X connect 21 18 20 18;
#X connect 21 19 20 19;
#X connect 21 20 20 20;
#X connect 21 21 20 21;
#X connect 21 22 20 22;
#X connect 21 23 20 23;
#X connect 21 24 20 24;
#X connect 21 25 20 25;
#X connect 21 26 20 26;
#X connect 21 27 20 27;
#X connect 21 28 20 28;
#X connect 21 29 20 29;
#X connect 21 30 20 30;
#X connect 21 31 20 31;
#X connect 21 32 20 32;
#X connect 21 33 20 33;
#X connect 21 34 20 34;
#X connect 21 35 20 35;
#X connect 21 36 20 36;
#X connect 21 37 20 37;
#X connect 21 38 20 38;
#X connect 21 39 20 39;
#X connect 21 40 20 40;
#X connect 21 41 20 41;
#X connect 21 42 20 42;
#X connect 21 43 20 43;
#X connect 21 44 20 44;
#X connect 21 45 20 45;
#X connect 21 46 20 46;
#X connect 21 47 20 47;
#X connect 21 48 20 48;
#X connect 21 49 20 49;
#X connect 21 50 20 50;
#X connect 21 51 20 51;
#X connect 21 52 20 52;
#X connect 21 53 20 53;
#X connect 21 54 20 54;
#X connect 21 55 20 55;
#X connect 21 56 20 56;
#X connect 21 57 20 57;
#X connect 21 58 20 58;
#X connect 21 59 20 59;
#X connect 21 60 20 60;
#X connect 21 61 20 61;
#X connect 21 62 20 62;
#X connect 21 63 20 63;
#X connect 21 64 20 64;
#X connect 21 65 20 65;
#X connect 21 66 20 66;
#X connect 21 67 20 67;
#X connect 21 68 20 68;
#X connect 21 69 20 69;
#X connect 21 70 20 70;
#X connect 21 71 20 71;
#X connect 21 72 20 72;
#X connect 21 73 20 73;
#X connect 21 74 20 74;
#X connect 21 75 20 75;
#X connect 21 76 20 76;
#X connect 21 77 20 77;
#X connect 21 78 20 78;
#X connect 21 79 20 79;
#X connect 21 80 20 80;
#X connect 21 81 20 81;
#X connect 21 82 20 82;
#X connect 21 83 20 83;
#X connect 21 84 20 84;
#X connect 21 85 20 85;
#X connect 21 86 20 86;
#X connect 21 87 20 87;
#X connect 21 88 20 88;
#X connect 21 89 20 89;
#X connect 21 90 20 90;
#X connect 21 91 20 91;
#X connect 21 92 20 92;
#X connect 21 93 20 93;
#X connect 21 94 20 94;
#X connect 21 95 20 95;
#X connect 21 96 20 96;
#X connect 21 97 20 97;
#X connect 21 98 20 98;
#X connect 21 99 20 99;
#X connect 21 100 20 100;
#X connect 21 101 20 101;
#X connect 21 102 20 102;
#X connect 21 103 20 103;
#X connect 21 104 20 104;
#X connect 21 105 20 105;
#X connect 21 106 20 106;
#X connect 21 107 20 107;
#X connect 21 108 20 108;
#X connect 21 109 20 109;
#X connect 21 110 20 110;
#X connect 21 111 20 111;
#X connect 21 112 20 112;
#X connect 21 113 20 113;
#X connect 21 114 20 114;
#X connect 21 115 20 115;
#X connect 21 116 20 116;
#X connect 21 117 20 117;
#X connect 21 118 20 118;
#X connect 21 119 20 119;
#X connect 21 120 20 120;
#X connect 21 121 20 121;
#X connect 21 122 20 122;
#X connect 21 123 20 123;
#X connect 21 124 20 124;
#X connect 21 125 20 125;
#X connect 21 126 20 126;
#X connect 21 127 20 127;
#X connect 21 128 20 128;
#X connect 21 129 20 129;
#X connect 21 130 20 130;
#X connect 21 131 20 131;
#X connect 21 132 20 132;
#X connect 21 133 20 133;
#X connect 21 134 20 134;
#X connect 21 135 20 135;
#X connect 21 136 20 136;
#X connect 21 137 20 137;
#X connect 21 138 20 138;
#X connect 21 139 20 139;
#X connect 21 140 20 140;
#X connect 21 141 20 141;
#X connect 21 142 20 142;
#X connect 21 143 20 143;
#X connect 21 144 20 144;
#X connect 21 145 20 145;
#X connect 21 146 20 146;
#X connect 21 147 20 147;
#X connect 21 148 20 148;
#X connect 21 149 20 149;
#X connect 21 150 20 150;
#X connect 21 151 20 151;
#X connect 21 152 20 152;
#X connect 21 153 20 153;
#X connect 21 154 20 154;
#X connect 21 155 20 155;
#X connect 21 156 20 156;
#X connect 21 157 20 157;
#X connect 21 158 20 158;
#X connect 21 159 20 159;
#X connect 23 0 25 0;
#X connect 24 0 23 0;
#X connect 25 0 11 0;
#X connect 26 1 21 0;
#X connect 29 0 1 0;
#X connect 30 0 31 0;
#X connect 32 0 0 0;
#X connect 33 0 34 1;
#X connect 34 0 5 1;
#X connect 34 0 18 0;
#X connect 35 0 34 0;
#X connect 36 0 37 0;
#X connect 37 0 35 0;
#X connect 39 0 19 1;
#X connect 40 0 19 1;
#X connect 44 0 19 1;
