#N canvas 1277 227 468 413 12;
#X obj 34 27 inlet~;
#X obj 99 28 inlet;
#X obj 175 28 inlet;
#X obj 237 27 inlet;
#X obj 316 28 inlet;
#X obj 36 129 delwrite~ \$0-echorus 100;
#X obj 26 242 outlet~;
#X obj 251 137 cyclone/rand~;
#X obj 251 162 *~;
#X obj 251 187 *~;
#X obj 251 212 +~;
#X obj 38 172 vd~ \$0-echorus 5;
#X obj 178 159 *~;
#N canvas 735 372 172 144 thru 0;
#X obj 60 42 inlet;
#X obj 60 67 outlet;
#X connect 0 0 1 0;
#X restore 100 81 pd thru;
#X obj 143 -20 loadbang;
#X obj 143 5 \$1;
#X obj 214 -21 loadbang;
#X obj 214 4 \$2;
#X obj 283 -22 loadbang;
#X obj 283 3 \$3;
#N canvas 735 372 172 144 thru 0;
#X obj 60 42 inlet;
#X obj 60 67 outlet;
#X connect 0 0 1 0;
#X restore 173 78 pd thru;
#N canvas 735 372 172 144 thru 0;
#X obj 60 42 inlet;
#X obj 60 67 outlet;
#X connect 0 0 1 0;
#X restore 245 77 pd thru;
#X obj 245 102 clip 0 1;
#X obj 370 -20 loadbang;
#X obj 370 5 \$4;
#N canvas 735 372 172 144 thru 0;
#X obj 60 42 inlet;
#X obj 60 67 outlet;
#X connect 0 0 1 0;
#X restore 318 74 pd thru;
#X obj 318 99 clip 0 0.999;
#X text 18 294 \$1 - Delaytime;
#X text 18 317 \$2 - Chorus Rate;
#X text 18 337 \$3 - Chorus Depth 0 to 1;
#X text 18 355 \$4 - Feedback 0 to 0.999;
#X text 233 302 Based on max 5 tutorial 30;
#X connect 0 0 5 0;
#X connect 0 0 6 0;
#X connect 1 0 13 0;
#X connect 2 0 20 0;
#X connect 3 0 21 0;
#X connect 4 0 25 0;
#X connect 7 0 8 0;
#X connect 8 0 9 0;
#X connect 9 0 10 0;
#X connect 10 0 11 0;
#X connect 11 0 6 0;
#X connect 11 0 12 0;
#X connect 12 0 5 0;
#X connect 13 0 9 1;
#X connect 13 0 10 1;
#X connect 14 0 15 0;
#X connect 15 0 13 0;
#X connect 16 0 17 0;
#X connect 17 0 20 0;
#X connect 18 0 19 0;
#X connect 19 0 21 0;
#X connect 20 0 7 0;
#X connect 21 0 22 0;
#X connect 22 0 8 1;
#X connect 23 0 24 0;
#X connect 24 0 25 0;
#X connect 25 0 26 0;
#X connect 26 0 12 1;
