#N canvas 621 596 450 298 12;
#X obj 65 101 else/compress~;
#X obj 64 43 inlet~;
#X obj 65 150 outlet~;
#X obj 220 44 inlet;
#X msg 220 69 ratio \$1;
#X text 30 239 \$1 - ratio in \$1:1db;
#X connect 0 0 2 0;
#X connect 1 0 0 0;
#X connect 3 0 4 0;
#X connect 4 0 0 0;
