#N canvas 878 338 691 446 12;
#X obj 50 27 inlet~;
#X obj 216 178 *~;
#X obj 55 258 outlet~;
#X obj 351 115 clip~ 0 0.999;
#X obj 457 81 > 0.999;
#X obj 457 106 sel 1;
#X obj 457 131 \$2;
#X msg 354 247 \$1 feedback amount not within 0 and 0.999;
#X msg 485 281 Set feedback to 0;
#X obj 350 318 print edelay;
#X text 26 366 \$2 - Sets the amount of feedback you want from 0 to 0.999;
#X obj 457 156 t b f;
#X obj 30 124 delwrite~ \$0-edelay 10000;
#X text 26 349 \$1 - sets the delay you want in ms (up to 10 seconds);
#X obj 220 125 clip~ 0.01 1e+07;
#X obj 54 192 vd~ \$0-edelay;
#X obj 219 -3 loadbang;
#X obj 219 22 \$1;
#X obj 350 -4 loadbang;
#X obj 350 21 \$2;
#X obj 150 22 inlet;
#X obj 292 27 inlet;
#X obj 220 94 line~;
#X obj 350 87 line~;
#X text 460 54 Error checking to not get 1 feedback;
#X text 26 385 \$3 - Amount of time in ms you want to ramp between delay and feedback values, f 78;
#X obj 440 -2 loadbang;
#X obj 440 23 \$3;
#X obj 551 150 pack f f;
#X obj 551 175 line;
#X floatatom 551 200 5 0 0 0 - - - 0;
#X obj 221 64 pack f f;
#X obj 350 60 pack f f;
#X obj 527 22 inlet;
#X connect 0 0 12 0;
#X connect 1 0 12 0;
#X connect 3 0 1 1;
#X connect 4 0 5 0;
#X connect 5 0 6 0;
#X connect 6 0 11 0;
#X connect 7 0 9 0;
#X connect 8 0 9 0;
#X connect 11 0 8 0;
#X connect 11 1 7 0;
#X connect 14 0 15 0;
#X connect 15 0 1 0;
#X connect 15 0 2 0;
#X connect 16 0 17 0;
#X connect 17 0 31 0;
#X connect 18 0 19 0;
#X connect 19 0 4 0;
#X connect 19 0 32 0;
#X connect 20 0 31 0;
#X connect 21 0 4 0;
#X connect 21 0 32 0;
#X connect 22 0 14 0;
#X connect 23 0 3 0;
#X connect 26 0 27 0;
#X connect 27 0 32 1;
#X connect 27 0 31 1;
#X connect 28 0 29 0;
#X connect 29 0 30 0;
#X connect 31 0 22 0;
#X connect 32 0 23 0;
#X connect 33 0 32 1;
#X connect 33 0 31 1;
