#N canvas 838 416 569 291 12;
#X obj 52 44 inlet~;
#X obj 122 44 inlet;
#X obj 298 44 inlet;
#X obj 57 123 cyclone/svf~;
#X obj 56 215 outlet~;
#X obj 298 86 clip 0 1;
#X obj 175 44 loadbang;
#X obj 175 69 \$1;
#X obj 403 37 loadbang;
#X obj 403 62 \$2;
#X obj 403 91 > 1;
#X obj 403 116 sel 1;
#X msg 225 174 Resonance amount not within 0 and 1;
#X msg 396 211 Set resonance to 1;
#X obj 271 259 print elowpass;
#X text 14 250 \$1 - Cutoff Frequency;
#X text 14 268 \$2 - Resonance from 0 to 1;
#X obj 403 141 t b b;
#X text 342 10 Error detection for parameter;
#X connect 0 0 3 0;
#X connect 1 0 3 1;
#X connect 2 0 5 0;
#X connect 3 0 4 0;
#X connect 5 0 3 2;
#X connect 6 0 7 0;
#X connect 7 0 3 1;
#X connect 8 0 9 0;
#X connect 9 0 5 0;
#X connect 9 0 10 0;
#X connect 10 0 11 0;
#X connect 11 0 17 0;
#X connect 12 0 14 0;
#X connect 13 0 14 0;
#X connect 17 0 13 0;
#X connect 17 1 12 0;
