#N canvas 498 79 1149 383 12;
#X obj 52 44 inlet~;
#X obj 122 44 inlet;
#X obj 284 45 inlet;
#X obj 57 123 cyclone/svf~;
#X obj 56 215 outlet~;
#X obj 285 129 clip 0 1;
#X obj 175 44 loadbang;
#X obj 175 69 \$1;
#X obj 346 39 loadbang;
#X obj 346 64 \$2;
#X obj 627 164 > 1;
#X obj 627 189 sel 1;
#X msg 455 249 Resonance amount not within 0 and 1;
#X msg 626 286 Set resonance to 1;
#X text 13 332 \$1 - Cutoff Frequency;
#X text 13 350 \$2 - Resonance from 0 to 1;
#X obj 627 214 t b b;
#X obj 284 94 cyclone/scale 0 1 1 0;
#X obj 455 356 print enotch;
#X obj 694 162 < 0;
#X obj 694 187 sel 1;
#X obj 763 175 sel 1;
#X obj 763 200 t b b;
#X msg 757 246 Resonance set to 0 does nothing to the signal;
#X msg 821 304 Output signal is not affected;
#X floatatom 397 164 5 0 0 0 - - - 0;
#X obj 763 148 == 0;
#X connect 0 0 3 0;
#X connect 1 0 3 1;
#X connect 2 0 17 0;
#X connect 2 0 10 0;
#X connect 2 0 19 0;
#X connect 2 0 26 0;
#X connect 3 3 4 0;
#X connect 5 0 3 2;
#X connect 6 0 7 0;
#X connect 7 0 3 1;
#X connect 8 0 9 0;
#X connect 9 0 17 0;
#X connect 9 0 10 0;
#X connect 9 0 19 0;
#X connect 9 0 26 0;
#X connect 10 0 11 0;
#X connect 11 0 16 0;
#X connect 12 0 18 0;
#X connect 13 0 18 0;
#X connect 16 0 13 0;
#X connect 16 1 12 0;
#X connect 17 0 5 0;
#X connect 17 0 25 0;
#X connect 19 0 20 0;
#X connect 20 0 16 0;
#X connect 21 0 22 0;
#X connect 22 0 24 0;
#X connect 22 1 23 0;
#X connect 23 0 18 0;
#X connect 24 0 18 0;
#X connect 26 0 21 0;
