#N canvas 710 415 499 215 12;
#X obj 53 144 outlet~;
#X obj 54 30 inlet~;
#X obj 211 31 inlet;
#X text 32 179 \$1 - liveness 0-100;
#X text 214 167 NOTE: This patch is not the same as;
#X text 215 186 the max msp version of ereverb;
#X obj 269 32 loadbang;
#X obj 269 57 \$1;
#X obj 53 119 rev3~ 100 100 3000 100;
#X connect 1 0 8 0;
#X connect 2 0 8 3;
#X connect 6 0 7 0;
#X connect 7 0 8 3;
#X connect 8 0 0 0;
