#N canvas 710 416 499 215 12;
#X obj 53 144 outlet~;
#X obj 54 30 inlet~;
#X obj 211 31 inlet;
#X text 214 167 NOTE: This patch is not the same as;
#X text 215 186 the max msp version of ereverb;
#X obj 269 32 loadbang;
#X obj 269 57 \$1;
#X obj 53 119 rev3~ 100 100 3000 100;
#X text 32 179 \$1 - liveness 0-1;
#X obj 269 82 * 100;
#X connect 1 0 7 0;
#X connect 2 0 7 3;
#X connect 5 0 6 0;
#X connect 6 0 9 0;
#X connect 7 0 0 0;
#X connect 9 0 7 3;
