#N canvas 801 539 581 321 12;
#X obj 72 234 output~;
#X obj 108 73 readsf~;
#X msg 107 22 open ~/Samples/break.wav;
#X obj 303 23 tgl 20 0 empty empty empty 0 -10 0 12 #fcfcfc #000000 #000000 0 1;
#X obj 303 48 t f b;
#X obj 185 91 bng 20 250 50 0 empty empty empty 0 -10 0 12 #fcfcfc #000000 #000000;
#X msg 185 116 1;
#X obj 74 143 echorus 10 1 1 0.5;
#X obj 235 162 hsl 170 20 0 20000 0 0 empty empty empty -2 -10 0 12 #fcfcfc #000000 #000000 0 1;
#X obj 74 168 edistort 10;
#X floatatom 200 203 5 0 0 0 - - - 0;
#X obj 74 207 ecompressor 5;
#X connect 1 0 7 0;
#X connect 1 1 5 0;
#X connect 2 0 1 0;
#X connect 3 0 4 0;
#X connect 4 0 1 0;
#X connect 4 1 2 0;
#X connect 5 0 6 0;
#X connect 6 0 3 0;
#X connect 7 0 9 0;
#X connect 8 0 11 1;
#X connect 9 0 11 0;
#X connect 11 0 0 0;
