#N canvas 390 200 450 300 10;
#X obj 40 263 inlet~;
#X obj 39 476 dac~ 1 2 3 4 5 6 7 8 9 10 11 12 13 14 15 16 17 18 19
20 21 22 23 24 25 26 27 28 29 30 31 32 33 34 35 36 37 38 39 40 41 42
43 44 45 46 47 48 49 50 51 52 53 54 55 56 57 58 59 60 61 62 63 64 65
66 67 68 69 70 71 72 73 74 75 76 77 78 79 80 81 82 83 84 85 86 87 88
89 90 91 92 93 94 95 96 97 98 99 100 101 102 103 104 105 106 107 108
109 110 111 112 113 114 115 116 117 118 119 120 121 122 123 124 125
126 127 128 129 130 131 132 133 134 135 136 137 138 139 140 141 142
143 144 145 146 147 148 149 150 151 152 153 154 155 156 157 158 159
160;
#X obj 39 373 demultiplex~ . . . . . . . . . . . . . . . . . . . .
. . . . . . . . . . . . . . . . . . . . . . . . . . . . . . . . . .
. . . . . . . . . . . . . . . . . . . . . . . . . . . . . . . . . .
. . . . . . . . . . . . . . . . . . . . . . . . . . . . . . . . . .
. . . . . . . . . . . . . . . . . . . . . . . . . . . . . . . . . .
. . . .;
#X obj 185 281 \$1;
#X obj 185 258 loadbang;
#X floatatom 213 344 5 0 0 1 ChannelSelected - -, f 5;
#X obj 185 304 - 1;
#X obj 278 258 inlet;
#X text 315 259 This goes to 160 Channels;
#X connect 0 0 2 0;
#X connect 2 0 1 0;
#X connect 2 1 1 1;
#X connect 2 2 1 2;
#X connect 2 3 1 3;
#X connect 2 4 1 4;
#X connect 2 5 1 5;
#X connect 2 6 1 6;
#X connect 2 7 1 7;
#X connect 2 8 1 8;
#X connect 2 9 1 9;
#X connect 2 10 1 10;
#X connect 2 11 1 11;
#X connect 2 12 1 12;
#X connect 2 13 1 13;
#X connect 2 14 1 14;
#X connect 2 15 1 15;
#X connect 2 16 1 16;
#X connect 2 17 1 17;
#X connect 2 18 1 18;
#X connect 2 19 1 19;
#X connect 2 20 1 20;
#X connect 2 21 1 21;
#X connect 2 22 1 22;
#X connect 2 23 1 23;
#X connect 2 24 1 24;
#X connect 2 25 1 25;
#X connect 2 26 1 26;
#X connect 2 27 1 27;
#X connect 2 28 1 28;
#X connect 2 29 1 29;
#X connect 2 30 1 30;
#X connect 2 31 1 31;
#X connect 2 32 1 32;
#X connect 2 33 1 33;
#X connect 2 34 1 34;
#X connect 2 35 1 35;
#X connect 2 36 1 36;
#X connect 2 37 1 37;
#X connect 2 38 1 38;
#X connect 2 39 1 39;
#X connect 2 40 1 40;
#X connect 2 41 1 41;
#X connect 2 42 1 42;
#X connect 2 43 1 43;
#X connect 2 44 1 44;
#X connect 2 45 1 45;
#X connect 2 46 1 46;
#X connect 2 47 1 47;
#X connect 2 48 1 48;
#X connect 2 49 1 49;
#X connect 2 50 1 50;
#X connect 2 51 1 51;
#X connect 2 52 1 52;
#X connect 2 53 1 53;
#X connect 2 54 1 54;
#X connect 2 55 1 55;
#X connect 2 56 1 56;
#X connect 2 57 1 57;
#X connect 2 58 1 58;
#X connect 2 59 1 59;
#X connect 2 60 1 60;
#X connect 2 61 1 61;
#X connect 2 62 1 62;
#X connect 2 63 1 63;
#X connect 2 64 1 64;
#X connect 2 65 1 65;
#X connect 2 66 1 66;
#X connect 2 67 1 67;
#X connect 2 68 1 68;
#X connect 2 69 1 69;
#X connect 2 70 1 70;
#X connect 2 71 1 71;
#X connect 2 72 1 72;
#X connect 2 73 1 73;
#X connect 2 74 1 74;
#X connect 2 75 1 75;
#X connect 2 76 1 76;
#X connect 2 77 1 77;
#X connect 2 78 1 78;
#X connect 2 79 1 79;
#X connect 2 80 1 80;
#X connect 2 81 1 81;
#X connect 2 82 1 82;
#X connect 2 83 1 83;
#X connect 2 84 1 84;
#X connect 2 85 1 85;
#X connect 2 86 1 86;
#X connect 2 87 1 87;
#X connect 2 88 1 88;
#X connect 2 89 1 89;
#X connect 2 90 1 90;
#X connect 2 91 1 91;
#X connect 2 92 1 92;
#X connect 2 93 1 93;
#X connect 2 94 1 94;
#X connect 2 95 1 95;
#X connect 2 96 1 96;
#X connect 2 97 1 97;
#X connect 2 98 1 98;
#X connect 2 99 1 99;
#X connect 2 100 1 100;
#X connect 2 101 1 101;
#X connect 2 102 1 102;
#X connect 2 103 1 103;
#X connect 2 104 1 104;
#X connect 2 105 1 105;
#X connect 2 106 1 106;
#X connect 2 107 1 107;
#X connect 2 108 1 108;
#X connect 2 109 1 109;
#X connect 2 110 1 110;
#X connect 2 111 1 111;
#X connect 2 112 1 112;
#X connect 2 113 1 113;
#X connect 2 114 1 114;
#X connect 2 115 1 115;
#X connect 2 116 1 116;
#X connect 2 117 1 117;
#X connect 2 118 1 118;
#X connect 2 119 1 119;
#X connect 2 120 1 120;
#X connect 2 121 1 121;
#X connect 2 122 1 122;
#X connect 2 123 1 123;
#X connect 2 124 1 124;
#X connect 2 125 1 125;
#X connect 2 126 1 126;
#X connect 2 127 1 127;
#X connect 2 128 1 128;
#X connect 2 129 1 129;
#X connect 2 130 1 130;
#X connect 2 131 1 131;
#X connect 2 132 1 132;
#X connect 2 133 1 133;
#X connect 2 134 1 134;
#X connect 2 135 1 135;
#X connect 2 136 1 136;
#X connect 2 137 1 137;
#X connect 2 138 1 138;
#X connect 2 139 1 139;
#X connect 2 140 1 140;
#X connect 2 141 1 141;
#X connect 2 142 1 142;
#X connect 2 143 1 143;
#X connect 2 144 1 144;
#X connect 2 145 1 145;
#X connect 2 146 1 146;
#X connect 2 147 1 147;
#X connect 2 148 1 148;
#X connect 2 149 1 149;
#X connect 2 150 1 150;
#X connect 2 151 1 151;
#X connect 2 152 1 152;
#X connect 2 153 1 153;
#X connect 2 154 1 154;
#X connect 2 155 1 155;
#X connect 2 156 1 156;
#X connect 2 157 1 157;
#X connect 2 158 1 158;
#X connect 2 159 1 159;
#X connect 3 0 5 0;
#X connect 3 0 6 0;
#X connect 4 0 3 0;
#X connect 6 0 2 0;
#X connect 7 0 6 0;
#X connect 7 0 5 0;
